<svg width="200" height="32" viewBox="0 0 200 32" fill="none" xmlns="http://www.w3.org/2000/svg" id="svg-1428821796_8518">
<g clip-path="url(#svg-1428821796_8518_clip0_401_14745)">
<path d="M70.4297 23.2H79.5118V20.6139H73.1991V8.53821H70.4297V23.2Z" fill="white"/>
<path d="M84.9694 23.5054C86.0691 23.5054 87.0364 23.261 87.8713 22.7723C88.713 22.2768 89.368 21.5946 89.8364 20.7258C90.3115 19.8501 90.5491 18.8421 90.5491 17.7018C90.5491 16.5682 90.3149 15.567 89.8466 14.6981C89.3782 13.8225 88.7231 13.1369 87.8814 12.6414C87.0466 12.1459 86.0759 11.8981 84.9694 11.8981C83.8834 11.8981 82.9229 12.1425 82.088 12.6313C81.2531 13.12 80.5981 13.8021 80.1229 14.6778C79.6478 15.5466 79.4102 16.5546 79.4102 17.7018C79.4102 18.8353 79.641 19.84 80.1026 20.7156C80.5709 21.5845 81.2226 22.2666 82.0574 22.7621C82.8924 23.2577 83.863 23.5054 84.9694 23.5054ZM84.9694 20.9193C84.1074 20.9193 83.4524 20.6308 83.0044 20.0538C82.5631 19.4701 82.3426 18.6861 82.3426 17.7018C82.3426 16.7447 82.553 15.9709 82.9738 15.3803C83.4014 14.783 84.0666 14.4843 84.9694 14.4843C85.8451 14.4843 86.5035 14.7762 86.9447 15.36C87.3927 15.9437 87.6167 16.7243 87.6167 17.7018C87.6167 18.6453 87.3962 19.4191 86.9549 20.0233C86.5205 20.6205 85.8586 20.9193 84.9694 20.9193Z" fill="white"/>
<path d="M96.0256 23.5054C96.5415 23.5054 97.0166 23.4443 97.4511 23.3221C97.8923 23.2 98.2928 23.0269 98.6525 22.8029V23.9127C98.6661 24.32 98.5608 24.6593 98.3368 24.9309C98.1196 25.2092 97.8278 25.4162 97.4612 25.552C97.0947 25.6945 96.7044 25.7658 96.2904 25.7658C95.9034 25.7658 95.5436 25.6809 95.2111 25.5113C94.8852 25.3416 94.634 25.0938 94.4576 24.768L91.8918 26.0101C92.3126 26.7229 92.9133 27.2965 93.694 27.7309C94.4746 28.1721 95.3332 28.3927 96.27 28.3927C97.0777 28.3927 97.8278 28.2841 98.5201 28.0669C99.2125 27.8565 99.7963 27.5341 100.271 27.0996C100.753 26.6652 101.083 26.112 101.259 25.44C101.32 25.2024 101.361 24.9614 101.381 24.717C101.408 24.4795 101.422 24.2249 101.422 23.9534V12.2036H98.9987V12.8145C98.6253 12.5226 98.2011 12.2986 97.726 12.1425C97.2576 11.9796 96.7384 11.8981 96.1681 11.8981C95.116 11.8981 94.1996 12.1493 93.4191 12.6516C92.6384 13.1539 92.0309 13.8429 91.5965 14.7185C91.1688 15.5873 90.9551 16.5818 90.9551 17.7018C90.9551 18.8014 91.1655 19.789 91.5864 20.6647C92.014 21.5403 92.6079 22.2327 93.3681 22.7418C94.1284 23.2509 95.0142 23.5054 96.0256 23.5054ZM96.4736 21.0414C95.8763 21.0414 95.3876 20.8921 95.0074 20.5934C94.6273 20.2948 94.3456 19.8943 94.1624 19.392C93.9791 18.8829 93.8874 18.3195 93.8874 17.7018C93.8874 17.0909 93.9824 16.5343 94.1725 16.032C94.3626 15.5229 94.6544 15.119 95.0481 14.8203C95.4486 14.5149 95.9577 14.3621 96.5754 14.3621C97.4443 14.3621 98.0653 14.671 98.4387 15.2887C98.812 15.8996 98.9987 16.704 98.9987 17.7018C98.9987 18.6996 98.8086 19.5073 98.4285 20.125C98.0552 20.736 97.4036 21.0414 96.4736 21.0414Z" fill="white"/>
<path d="M108 23.5054C109.1 23.5054 110.067 23.261 110.902 22.7723C111.744 22.2768 112.399 21.5946 112.867 20.7258C113.342 19.8501 113.58 18.8421 113.58 17.7018C113.58 16.5682 113.346 15.567 112.877 14.6981C112.409 13.8225 111.754 13.1369 110.912 12.6414C110.077 12.1459 109.107 11.8981 108 11.8981C106.914 11.8981 105.954 12.1425 105.119 12.6313C104.284 13.12 103.629 13.8021 103.154 14.6778C102.679 15.5466 102.441 16.5546 102.441 17.7018C102.441 18.8353 102.672 19.84 103.133 20.7156C103.602 21.5845 104.253 22.2666 105.088 22.7621C105.923 23.2577 106.894 23.5054 108 23.5054ZM108 20.9193C107.138 20.9193 106.483 20.6308 106.035 20.0538C105.594 19.4701 105.373 18.6861 105.373 17.7018C105.373 16.7447 105.584 15.9709 106.005 15.3803C106.432 14.783 107.097 14.4843 108 14.4843C108.876 14.4843 109.534 14.7762 109.975 15.36C110.423 15.9437 110.647 16.7243 110.647 17.7018C110.647 18.6453 110.427 19.4191 109.986 20.0233C109.551 20.6205 108.889 20.9193 108 20.9193Z" fill="white"/>
<path d="M114.8 10.6763H117.57V8.23273H114.8V10.6763ZM114.8 23.2H117.57V12.2036H114.8V23.2Z" fill="white"/>
<path d="M119.38 28.0873H122.17V22.8029C122.53 23.0269 122.927 23.2 123.361 23.3221C123.803 23.4443 124.281 23.5054 124.797 23.5054C125.808 23.5054 126.695 23.2509 127.455 22.7418C128.215 22.2327 128.805 21.5403 129.226 20.6647C129.654 19.789 129.868 18.8014 129.868 17.7018C129.868 16.5818 129.651 15.5873 129.216 14.7185C128.788 13.8429 128.184 13.1539 127.404 12.6516C126.623 12.1493 125.707 11.8981 124.655 11.8981C124.084 11.8981 123.562 11.9796 123.087 12.1425C122.618 12.2986 122.197 12.5226 121.824 12.8145V12.2036H119.38V28.0873ZM124.349 21.0414C123.426 21.0414 122.775 20.736 122.394 20.125C122.014 19.5073 121.824 18.6996 121.824 17.7018C121.824 16.704 122.011 15.8996 122.384 15.2887C122.764 14.671 123.385 14.3621 124.248 14.3621C124.865 14.3621 125.371 14.5149 125.764 14.8203C126.165 15.119 126.46 15.5229 126.65 16.032C126.84 16.5343 126.936 17.0909 126.936 17.7018C126.936 18.3195 126.844 18.8829 126.66 19.392C126.477 19.8943 126.196 20.2948 125.816 20.5934C125.436 20.8921 124.947 21.0414 124.349 21.0414Z" fill="white"/>
<path d="M134.885 23.5054C136.323 23.5054 137.45 23.183 138.265 22.5381C139.079 21.8933 139.486 21.0075 139.486 19.8807C139.486 19.0254 139.221 18.3501 138.693 17.8545C138.169 17.359 137.281 16.9483 136.025 16.6225C135.169 16.4053 134.531 16.2288 134.11 16.093C133.697 15.9573 133.421 15.8249 133.285 15.696C133.157 15.567 133.093 15.4075 133.093 15.2174C133.093 14.8984 133.245 14.6541 133.55 14.4843C133.863 14.3146 134.273 14.2468 134.782 14.2807C135.861 14.3621 136.453 14.8237 136.554 15.6654L139.385 15.1563C139.242 14.1585 138.753 13.3677 137.918 12.784C137.084 12.1934 136.018 11.8981 134.721 11.8981C133.391 11.8981 132.329 12.2104 131.534 12.8349C130.741 13.4593 130.343 14.301 130.343 15.36C130.343 16.2017 130.618 16.8669 131.168 17.3556C131.717 17.8376 132.665 18.2516 134.009 18.5978C134.803 18.8082 135.386 18.9779 135.76 19.1069C136.14 19.2358 136.385 19.3682 136.493 19.504C136.601 19.6329 136.656 19.8061 136.656 20.0233C136.656 20.3694 136.52 20.6409 136.249 20.8378C135.977 21.0278 135.59 21.1229 135.088 21.1229C134.477 21.1229 133.971 20.9769 133.571 20.685C133.177 20.3932 132.922 19.9893 132.807 19.4734L129.977 19.901C130.16 21.0482 130.676 21.9374 131.525 22.5687C132.38 23.1932 133.5 23.5054 134.885 23.5054Z" fill="white"/>
<path d="M144.596 23.5259C145.39 23.5259 146.082 23.3935 146.673 23.1287C147.264 22.864 147.759 22.5111 148.16 22.0699V23.2H150.603V12.2036H147.813V17.7833C147.813 18.4621 147.735 19.0119 147.579 19.4327C147.43 19.8468 147.236 20.1624 146.999 20.3796C146.761 20.5901 146.507 20.7326 146.235 20.8073C145.964 20.8819 145.709 20.9193 145.472 20.9193C144.881 20.9193 144.423 20.7869 144.097 20.5222C143.778 20.2575 143.547 19.9283 143.404 19.5346C143.262 19.1408 143.177 18.7506 143.15 18.3636C143.123 17.9699 143.109 17.6475 143.109 17.3963V12.2036H140.299V18.3739C140.299 18.5571 140.312 18.849 140.34 19.2495C140.367 19.6499 140.445 20.0946 140.574 20.5833C140.703 21.0652 140.916 21.5302 141.216 21.9782C141.521 22.4262 141.945 22.7961 142.488 23.088C143.031 23.3799 143.734 23.5259 144.596 23.5259Z" fill="white"/>
<path d="M152.207 23.2H154.996V16.5411C154.996 15.9099 155.169 15.3974 155.515 15.0036C155.868 14.6031 156.333 14.4029 156.911 14.4029C157.515 14.4029 157.987 14.6066 158.326 15.0139C158.671 15.4143 158.845 15.9777 158.845 16.704V23.2H161.615V16.5411C161.615 15.9099 161.787 15.3974 162.134 15.0036C162.487 14.6031 162.951 14.4029 163.528 14.4029C164.133 14.4029 164.604 14.6066 164.943 15.0139C165.29 15.4143 165.463 15.9777 165.463 16.704V23.2H168.232V15.9709C168.232 14.7695 167.91 13.7988 167.265 13.0589C166.627 12.3123 165.68 11.9389 164.424 11.9389C163.719 11.9389 163.071 12.0916 162.479 12.3971C161.889 12.7026 161.418 13.12 161.064 13.6495C160.779 13.1336 160.372 12.7195 159.843 12.4073C159.313 12.0951 158.655 11.9389 157.867 11.9389C157.202 11.9389 156.591 12.0713 156.035 12.336C155.478 12.5939 155.016 12.9503 154.65 13.4051V12.2036H152.207V23.2Z" fill="white"/>
<path d="M47.2002 0C38.3636 0 31.2002 7.16344 31.2002 16C40.0368 16 47.2002 8.83656 47.2002 0Z" fill="white"/>
<path d="M47.2002 32C56.0368 32 63.2002 24.8366 63.2002 16C54.3636 16 47.2002 23.1634 47.2002 32Z" fill="white"/>
<path d="M47.2002 0C56.0368 0 63.2002 7.16344 63.2002 16C54.3636 16 47.2002 8.83656 47.2002 0Z" fill="white"/>
<path d="M47.2002 32C38.3636 32 31.2002 24.8366 31.2002 16C40.0368 16 47.2002 23.1634 47.2002 32Z" fill="white"/>
</g>
<defs>
<clipPath id="svg-1428821796_8518_clip0_401_14745">
<rect width="137.6" height="32" fill="white" transform="translate(31.2002)"/>
</clipPath>
</defs>
</svg>