<svg xmlns="http://www.w3.org/2000/svg" width="56" height="56" fill="none"><rect width="56" height="56" fill="#19182D" rx="8"/><g clip-path="url(#a)"><path fill="#584DFA" d="M14 26.308C14 19.51 19.51 14 26.308 14c.006 0 .012.005.012.012v27.976a.012.012 0 0 1-.012.012C19.51 42 14 36.49 14 29.692v-3.384zM29.68 14C36.484 14 42 19.516 42 26.32h-5.88a6.44 6.44 0 0 1-6.44-6.44V14z"/><path fill="#867EFB" d="M29.68 36.12a6.44 6.44 0 0 1 6.44-6.44H42C42 36.484 36.484 42 29.68 42v-5.88z"/></g><defs><clipPath id="a"><rect width="28" height="28" x="14" y="14" fill="#fff" rx="14"/></clipPath></defs></svg>