<svg xmlns="http://www.w3.org/2000/svg" width="56" height="56" fill="none"><rect width="56" height="56" fill="#545550" rx="8"/><path fill="#fff" d="M28.58 20.84v.4c-.453.013-.8.067-1.04.16a.72.72 0 0 0-.46.48c-.08.227-.12.587-.12 1.08v9.92c0 .48.04.84.12 1.08.08.24.233.4.46.48.24.08.587.133 1.04.16v.4c-.307-.027-.693-.04-1.16-.04a49.948 49.948 0 0 0-2.84 0c-.453 0-.82.013-1.1.04v-.4c.453-.027.793-.08 1.02-.16.24-.08.4-.24.48-.48.08-.24.12-.6.12-1.08v-11l.08.06-4.9 13.16h-.32l-5.04-12.98v10.56c0 .48.04.86.12 1.14.093.267.267.46.52.58.267.107.66.173 1.18.2v.4a8.851 8.851 0 0 0-.94-.04 26.616 26.616 0 0 0-2.12 0c-.333 0-.613.013-.84.04v-.4c.453-.027.793-.093 1.02-.2.24-.12.4-.313.48-.58.08-.28.12-.66.12-1.14v-9.72c0-.493-.04-.853-.12-1.08a.721.721 0 0 0-.48-.48c-.227-.093-.567-.147-1.02-.16v-.4c.227.013.507.027.84.04.347.013.687.02 1.02.02.293 0 .593-.007.9-.02.32-.013.587-.027.8-.04l4.54 11.96-.34.16 4.5-12.06h.94c.467 0 .927-.007 1.38-.02.467-.013.853-.027 1.16-.04zm14.782 0v.4c-.254.053-.527.207-.82.46-.28.253-.534.68-.76 1.28l-4.7 12.12h-.32l-4.88-12.58c-.2-.507-.427-.84-.68-1-.254-.173-.487-.267-.7-.28v-.4c.267.013.593.027.98.04.4.013.787.02 1.16.02.52 0 1.006-.007 1.46-.02.453-.013.82-.027 1.1-.04v.4c-.453.013-.8.067-1.04.16a.576.576 0 0 0-.38.5c-.013.227.067.567.24 1.02l3.72 9.86-.32.34 3.48-9.04c.28-.72.413-1.28.4-1.68-.014-.413-.167-.707-.46-.88-.294-.173-.72-.267-1.28-.28v-.4l1.18.04c.4.013.773.02 1.12.02.346 0 .633-.007.86-.02.227-.013.44-.027.64-.04z"/></svg>