<svg width="200" height="32" viewBox="0 0 200 32" fill="none" xmlns="http://www.w3.org/2000/svg" id="svg-284783159_6239">
<path d="M99.596 25.0447H92.8592V7.03419H99.596V25.0447ZM93.5171 24.3868H98.9381V7.69208H93.5171V24.3868ZM108.97 25.0447H102.368V7.03419H116.16C118.136 6.87419 120.104 7.42889 121.705 8.59735C122.395 9.22802 122.929 10.0094 123.266 10.8806C123.604 11.7518 123.736 12.6892 123.651 13.6197C123.75 15.2276 123.238 16.8134 122.218 18.0605C121.012 19.4447 119.004 20.1579 116.251 20.1829C115.558 20.2013 110.362 20.1829 108.974 20.1829L108.97 25.0447ZM103.022 24.3868H108.312V19.5184H108.642C108.709 19.5184 115.455 19.5395 116.235 19.5184C118.8 19.496 120.643 18.8605 121.721 17.6197C122.629 16.4914 123.079 15.0633 122.984 13.6184C123.065 12.7847 122.953 11.9435 122.656 11.1602C122.36 10.3768 121.887 9.67231 121.274 9.10129C119.789 8.03564 117.972 7.53541 116.151 7.69077H103.026L103.022 24.3868ZM114.763 16.1368H108.267V11.2342H114.807C115.27 11.1701 115.742 11.2242 116.179 11.3915C116.616 11.5587 117.004 11.8336 117.307 12.1908C117.581 12.6473 117.71 13.1763 117.678 13.7079C117.702 14.2014 117.596 14.6927 117.368 15.1316C117.056 15.5077 116.653 15.7973 116.197 15.9724C115.74 16.1475 115.247 16.2023 114.763 16.1316V16.1368ZM108.925 15.4789H114.763C115.842 15.4789 116.51 15.2539 116.807 14.7908C116.97 14.4541 117.043 14.0812 117.021 13.7079C117.05 13.3158 116.965 12.9238 116.776 12.5789L116.768 12.5671C116.455 12.1066 115.833 11.8921 114.807 11.8921H108.925V15.4789ZM135.658 25.3105C129.75 25.3105 126.224 23.8434 124.88 20.8263C124.66 20.2435 124.511 19.6366 124.435 19.0184L124.378 18.6395H131.407L131.453 18.9158C131.507 19.1963 131.626 19.4604 131.8 19.6868C132.078 20.0223 133.004 20.5855 136.078 20.5855C139.772 20.5855 139.772 19.9368 139.772 19.5881C139.772 19 139.345 18.7987 136.332 18.4776L135.759 18.4237C134.625 18.3171 133.191 18.1816 132.535 18.125C127.009 17.625 124.542 15.9079 124.542 12.5592C124.542 9.04208 128.741 6.76971 135.239 6.76971C140.541 6.76971 143.957 8.16708 145.389 10.9263C145.729 11.5681 145.958 12.2631 146.064 12.9816L146.11 13.3513H139.074L139.045 13.0539C139.017 12.8215 138.918 12.6035 138.76 12.4302C138.497 12.0776 137.666 11.4947 135.084 11.4947C131.914 11.4947 131.478 11.9 131.478 12.3368C131.478 12.9197 132.479 13.1263 135.688 13.4697C137.026 13.5789 139.178 13.8 139.914 13.8895C144.547 14.3921 146.614 16.0671 146.614 19.3223C146.616 22.0526 144.714 25.3105 135.658 25.3105ZM125.146 19.2973C125.212 19.7313 125.325 20.1566 125.484 20.5658C126.708 23.3145 130.037 24.6526 135.658 24.6526C140.358 24.6526 145.962 23.7316 145.962 19.3223C145.962 16.4368 144.133 15.0079 139.845 14.5434C139.108 14.4539 136.97 14.2342 135.634 14.1237C132.213 13.7526 130.822 13.5552 130.822 12.3368C130.822 11.0763 132.321 10.8368 135.087 10.8368C137.272 10.8368 138.684 11.2316 139.283 12.0276C139.446 12.2237 139.57 12.4499 139.646 12.6934H145.349C145.234 12.1845 145.053 11.693 144.809 11.2316C143.493 8.70656 140.279 7.42761 135.242 7.42761C129.143 7.42761 125.203 9.44208 125.203 12.5592C125.203 15.5329 127.414 17.0013 132.596 17.4697C133.254 17.5263 134.687 17.6618 135.824 17.7697L136.4 17.8237C139.199 18.1184 140.433 18.3026 140.433 19.5881C140.433 20.9723 138.837 21.2434 136.08 21.2434C133.53 21.2434 131.92 20.8605 131.297 20.1066C131.105 19.8662 130.961 19.5916 130.871 19.2973H125.146ZM159.114 25.2881C152.246 25.2881 148.457 22.5105 148.457 17.4658V7.03419H155.104V17.4658C155.104 19.196 156.653 20.1881 159.351 20.1881C161.93 20.1881 163.532 19.1526 163.532 17.4881V7.03419H170.11V18.0184C170.117 22.6381 166.105 25.2881 159.11 25.2881H159.114ZM149.114 7.69208V17.4658C149.114 23.7 155.375 24.6302 159.114 24.6302C162.98 24.6302 169.463 23.771 169.463 18.0184V7.69208H164.2V17.4881C164.2 19.5276 162.3 20.846 159.362 20.846C156.291 20.846 154.457 19.5829 154.457 17.4658V7.69208H149.114ZM197.989 25.0447H191.716V16.9131L188.158 25.0447H182.685L179.164 16.9289V25.0447H172.868V7.03419H181.15L185.453 16.9645L189.963 7.03419H197.997L197.989 25.0447ZM192.374 24.3868H197.332V7.69208H190.382L185.432 18.5855L180.713 7.69208H173.521V24.3868H178.501V13.7631L183.107 24.3908H187.712L192.366 13.7789L192.374 24.3868ZM7.96574 7.36314H1.97363V24.7158H18.5315V20.096H7.96574V7.36314ZM30.6263 6.9684C22.9776 6.9684 18.9552 10.5934 18.9552 15.9158C18.9552 21.9289 23.1776 24.9789 30.6263 24.9789C38.8263 24.9789 42.275 21.4421 42.275 15.9158C42.275 10.3039 38.3842 6.96577 30.6263 6.96577V6.9684ZM30.6039 11.4776C31.1246 11.4752 31.6449 11.5055 32.1618 11.5684L25.4631 18.2671C25.1461 17.5501 24.9915 16.7718 25.0105 15.9881C25.0105 13.2658 26.3815 11.475 30.6039 11.475V11.4776ZM30.6263 20.5408C30.1246 20.543 29.6232 20.5148 29.1249 20.4566L35.8355 13.746C36.1406 14.4512 36.2867 15.2149 36.2631 15.9829C36.2631 18.6316 34.9999 20.5381 30.6263 20.5381V20.5408ZM54.1473 18.1723H60.3144C60.2236 18.6004 60.0344 19.0013 59.7618 19.3434C58.4832 20.385 56.8515 20.8918 55.2078 20.7579C54.3805 20.8464 53.5439 20.756 52.7546 20.4929C51.9652 20.2298 51.2415 19.8001 50.6328 19.2329C50.0093 18.3183 49.7131 17.2198 49.7921 16.1158C49.6911 14.9588 50.0132 13.8046 50.6986 12.8671C51.5605 11.8934 53.0197 11.4737 55.1644 11.4737C56.529 11.3607 57.8919 11.7111 59.0328 12.4684C59.3925 12.754 59.6613 13.138 59.8065 13.5737H65.5263C65.4847 12.8559 65.3121 12.1517 65.0171 11.496C63.6473 8.7105 60.4631 7.05261 55.0486 7.05261C50.3394 7.05261 47.1789 8.48945 45.4328 10.6566C44.2797 12.2215 43.6877 14.1295 43.7526 16.0723C43.678 18.0592 44.2547 20.0159 45.3947 21.6447C47.1197 23.8816 50.1921 24.9816 53.8842 24.9816C56.3388 25.1527 58.7767 24.4652 60.7802 23.0368L60.9355 24.7158H65.6868V14.4368H54.1473V18.1723ZM79.1723 6.96445C71.525 6.96445 67.5013 10.5895 67.5013 15.9118C67.5013 21.925 71.7223 24.975 79.1723 24.975C87.3736 24.975 90.8223 21.4381 90.8223 15.9118C90.8223 10.3039 86.9315 6.96577 79.1723 6.96577V6.96445ZM79.1513 11.4737C79.6582 11.4722 80.1648 11.5012 80.6684 11.5605L73.996 18.2368C73.6889 17.5277 73.5394 16.7606 73.5578 15.9881C73.5526 13.2658 74.9289 11.4737 79.1513 11.4737ZM79.1723 20.5368C78.6573 20.5391 78.1427 20.5091 77.6315 20.4473L84.3644 13.7131C84.6811 14.4276 84.8327 15.2043 84.8078 15.9855C84.8105 18.6316 83.5526 20.5381 79.1723 20.5381V20.5368Z" fill="white"/>
</svg>