<svg width="200" height="32" viewBox="0 0 200 32" fill="none" xmlns="http://www.w3.org/2000/svg" id="svg-996067164_10532">
<g clip-path="url(#svg-996067164_10532_clip0_401_14716)">
<path fill-rule="evenodd" clip-rule="evenodd" d="M39.8687 9.34824C38.5579 8.4692 37.017 8 35.4406 8V0C38.5933 0 41.6753 0.938384 44.2967 2.69649C46.9181 4.45458 48.9612 6.95345 50.1678 9.87704C51.3743 12.8006 51.69 16.0178 51.0749 19.1214C50.4598 22.2251 48.9416 25.0761 46.7123 27.3137C44.483 29.5514 41.6426 31.0752 38.5504 31.6926C35.4583 32.3099 32.2531 31.993 29.3404 30.7821C26.4276 29.571 23.938 27.5203 22.1865 24.8891C20.4349 22.2579 19.5 19.1645 19.5 16H27.4703C27.4703 17.5822 27.9378 19.129 28.8135 20.4446C29.6893 21.7602 30.9341 22.7855 32.3905 23.391C33.8469 23.9966 35.4494 24.155 36.9955 23.8462C38.5416 23.5376 39.9617 22.7757 41.0765 21.6569C42.1911 20.538 42.9502 19.1126 43.2577 17.5607C43.5653 16.0089 43.4075 14.4003 42.8042 12.9386C42.2009 11.4767 41.1794 10.2273 39.8687 9.34824Z" fill="white"/>
<path fill-rule="evenodd" clip-rule="evenodd" d="M27.4703 4.22794e-06C27.4703 1.05058 27.2641 2.09087 26.8636 3.06148C26.463 4.03208 25.876 4.91399 25.1358 5.65686C24.3957 6.39973 23.5171 6.989 22.5501 7.39104C21.5831 7.79308 20.5467 8 19.5 8L19.5 16C21.5933 16 23.6662 15.5862 25.6002 14.7821C27.5342 13.978 29.2915 12.7994 30.7717 11.3137C32.2519 9.828 33.4261 8.06416 34.2272 6.12294C35.0283 4.18172 35.4406 2.10115 35.4406 0L27.4703 4.22794e-06Z" fill="white"/>
<path d="M119.622 11.562H115.755V23.8919H119.622V11.562Z" fill="white"/>
<path d="M116.185 9.25332C116.589 9.65924 117.095 9.8622 117.701 9.8622C118.308 9.8622 118.805 9.65924 119.193 9.25332C119.581 8.83052 119.774 8.32308 119.774 7.73112C119.774 7.12225 119.581 6.61483 119.193 6.20892C118.805 5.80299 118.308 5.60004 117.701 5.60004C117.095 5.60004 116.589 5.80299 116.185 6.20892C115.797 6.61483 115.604 7.12225 115.604 7.73112C115.604 8.32308 115.797 8.83052 116.185 9.25332Z" fill="white"/>
<path d="M60.2725 23.8919V5.98059H64.2408V20.3908H72.1522V23.8919H60.2725Z" fill="white"/>
<path fill-rule="evenodd" clip-rule="evenodd" d="M79.299 24.1709C78.0353 24.1709 76.8894 23.8919 75.8615 23.3337C74.8505 22.7587 74.0501 21.9807 73.4603 20.9996C72.8706 20.0187 72.5757 18.9193 72.5757 17.7015C72.5757 16.4838 72.8706 15.3929 73.4603 14.4288C74.0501 13.4647 74.8505 12.7036 75.8615 12.1455C76.8725 11.5704 78.0184 11.2829 79.299 11.2829C80.5797 11.2829 81.7255 11.562 82.7365 12.1201C83.7476 12.6783 84.548 13.4479 85.1377 14.4288C85.7275 15.3929 86.0224 16.4838 86.0224 17.7015C86.0224 18.9193 85.7275 20.0187 85.1377 20.9996C84.548 21.9807 83.7476 22.7587 82.7365 23.3337C81.7255 23.8919 80.5797 24.1709 79.299 24.1709ZM79.299 20.6445C79.8551 20.6445 80.3438 20.5261 80.7651 20.2893C81.1863 20.0356 81.5065 19.6889 81.7255 19.2491C81.9614 18.7925 82.0794 18.2766 82.0794 17.7015C82.0794 17.1265 81.9614 16.6275 81.7255 16.2047C81.4896 15.765 81.161 15.4267 80.7397 15.1899C80.3353 14.9362 79.8551 14.8094 79.299 14.8094C78.7598 14.8094 78.2796 14.9362 77.8583 15.1899C77.4371 15.4267 77.1085 15.765 76.8725 16.2047C76.6366 16.6445 76.5187 17.1519 76.5187 17.7269C76.5187 18.2851 76.6366 18.7925 76.8725 19.2491C77.1085 19.6889 77.4371 20.0356 77.8583 20.2893C78.2796 20.5261 78.7598 20.6445 79.299 20.6445Z" fill="white"/>
<path fill-rule="evenodd" clip-rule="evenodd" d="M89.085 28.7122C90.1129 29.1857 91.3009 29.4225 92.649 29.4225C93.9633 29.4225 95.1344 29.1604 96.1623 28.636C97.1902 28.1117 97.9989 27.3845 98.5887 26.4543C99.1785 25.524 99.4738 24.4247 99.4738 23.1561V11.562H95.682V12.3904C95.4 12.1522 95.0797 11.9522 94.7216 11.7904C94.0643 11.469 93.3145 11.3083 92.472 11.3083C91.343 11.3083 90.3404 11.5789 89.4642 12.1201C88.5879 12.6444 87.8971 13.3717 87.3915 14.302C86.886 15.2153 86.6333 16.247 86.6333 17.3972C86.6333 18.5304 86.886 19.562 87.3915 20.4923C87.8971 21.4225 88.5879 22.1583 89.4642 22.6995C90.3404 23.2407 91.343 23.5113 92.472 23.5113C93.2977 23.5113 94.0475 23.3507 94.7216 23.0293C95.048 22.8736 95.3429 22.6902 95.6062 22.4789V23.2576C95.6062 24.1202 95.3282 24.7883 94.7721 25.2619C94.2329 25.7355 93.4831 25.9722 92.5226 25.9722C91.7474 25.9722 91.0818 25.8369 90.5258 25.5663C89.9866 25.2957 89.4978 24.8982 89.0597 24.3739L86.6838 26.7587C87.2736 27.6044 88.074 28.2556 89.085 28.7122ZM94.5952 19.7058C94.2076 19.9426 93.7442 20.061 93.205 20.061C92.6658 20.061 92.1939 19.9426 91.7895 19.7058C91.4019 19.469 91.0987 19.1476 90.8796 18.7417C90.6605 18.3189 90.551 17.8707 90.551 17.3972C90.551 16.8897 90.6605 16.4331 90.8796 16.0272C91.0987 15.6212 91.4104 15.2999 91.8148 15.0631C92.2192 14.8263 92.6826 14.7079 93.205 14.7079C93.7442 14.7079 94.2076 14.8263 94.5952 15.0631C94.9996 15.2999 95.3028 15.6212 95.5051 16.0272C95.7241 16.4331 95.8337 16.8897 95.8337 17.3972C95.8337 17.9045 95.7241 18.3612 95.5051 18.7671C95.3028 19.1561 94.9996 19.469 94.5952 19.7058Z" fill="white"/>
<path fill-rule="evenodd" clip-rule="evenodd" d="M107.612 24.1709C106.348 24.1709 105.202 23.8919 104.175 23.3337C103.163 22.7587 102.363 21.9807 101.773 20.9996C101.184 20.0187 100.889 18.9193 100.889 17.7015C100.889 16.4838 101.184 15.3929 101.773 14.4288C102.363 13.4647 103.163 12.7036 104.175 12.1455C105.185 11.5704 106.332 11.2829 107.612 11.2829C108.892 11.2829 110.039 11.562 111.049 12.1201C112.061 12.6783 112.861 13.4479 113.451 14.4288C114.04 15.3929 114.335 16.4838 114.335 17.7015C114.335 18.9193 114.04 20.0187 113.451 20.9996C112.861 21.9807 112.061 22.7587 111.049 23.3337C110.039 23.8919 108.892 24.1709 107.612 24.1709ZM107.612 20.6445C108.168 20.6445 108.657 20.5261 109.078 20.2893C109.499 20.0356 109.819 19.6889 110.039 19.2491C110.274 18.7925 110.392 18.2766 110.392 17.7015C110.392 17.1265 110.274 16.6275 110.039 16.2047C109.803 15.765 109.474 15.4267 109.053 15.1899C108.649 14.9362 108.168 14.8094 107.612 14.8094C107.073 14.8094 106.592 14.9362 106.171 15.1899C105.75 15.4267 105.421 15.765 105.185 16.2047C104.95 16.6445 104.832 17.1519 104.832 17.7269C104.832 18.2851 104.95 18.7925 105.185 19.2491C105.421 19.6889 105.75 20.0356 106.171 20.2893C106.592 20.5261 107.073 20.6445 107.612 20.6445Z" fill="white"/>
<path fill-rule="evenodd" clip-rule="evenodd" d="M128.917 24.1456C128.092 24.1456 127.333 23.9849 126.642 23.6636C126.279 23.4944 125.95 23.2925 125.657 23.0578V29.0928H121.84V11.562H125.707V12.413C125.988 12.1827 126.299 11.9836 126.642 11.8157C127.333 11.4774 128.092 11.3083 128.917 11.3083C130.08 11.3083 131.108 11.5874 132 12.1456C132.911 12.7036 133.618 13.4648 134.124 14.4288C134.647 15.3929 134.907 16.4923 134.907 17.7269C134.907 18.9616 134.647 20.061 134.124 21.0251C133.618 21.9892 132.911 22.7502 132 23.3084C131.108 23.8665 130.08 24.1456 128.917 24.1456ZM128.21 20.6445C128.765 20.6445 129.246 20.5176 129.65 20.264C130.072 20.0103 130.4 19.6635 130.636 19.2238C130.872 18.784 130.99 18.2851 130.99 17.7269C130.99 17.1519 130.872 16.6445 130.636 16.2048C130.4 15.765 130.072 15.4268 129.65 15.19C129.246 14.9362 128.774 14.8094 128.234 14.8094C127.696 14.8094 127.215 14.9362 126.794 15.19C126.389 15.4268 126.07 15.765 125.834 16.2048C125.598 16.6445 125.48 17.1519 125.48 17.7269C125.48 18.2851 125.589 18.784 125.808 19.2238C126.044 19.6635 126.373 20.0103 126.794 20.264C127.215 20.5176 127.687 20.6445 128.21 20.6445Z" fill="white"/>
<path d="M138.693 23.9172C139.4 24.1033 140.116 24.1962 140.841 24.1962C142.374 24.1962 143.587 23.8411 144.481 23.1307C145.39 22.4204 145.845 21.4648 145.845 20.2639C145.845 19.4859 145.702 18.8601 145.416 18.3865C145.129 17.8961 144.759 17.507 144.304 17.2195C143.849 16.932 143.368 16.7036 142.863 16.5345C142.357 16.3653 141.877 16.2216 141.422 16.1032C140.967 15.9848 140.597 15.8495 140.31 15.6973C140.024 15.545 139.88 15.3421 139.88 15.0884C139.88 14.8516 139.99 14.674 140.209 14.5556C140.428 14.4203 140.756 14.3527 141.194 14.3527C141.65 14.3527 142.113 14.4457 142.584 14.6317C143.073 14.8177 143.511 15.1392 143.899 15.5958L146.098 13.3633C145.542 12.6529 144.818 12.1201 143.924 11.7649C143.048 11.3929 142.088 11.2068 141.043 11.2068C140.049 11.2068 139.181 11.3759 138.44 11.7141C137.698 12.0525 137.125 12.5176 136.721 13.1095C136.317 13.6845 136.114 14.3696 136.114 15.1645C136.114 15.9087 136.258 16.5261 136.544 17.0165C136.83 17.4901 137.201 17.8622 137.656 18.1328C138.111 18.4034 138.591 18.6149 139.097 18.767C139.602 18.9193 140.083 19.063 140.538 19.1984C140.992 19.3168 141.363 19.4605 141.65 19.6297C141.953 19.7819 142.105 20.0102 142.105 20.3146C142.105 20.5514 141.978 20.7374 141.725 20.8728C141.489 21.0081 141.144 21.0757 140.689 21.0757C140.032 21.0757 139.425 20.9573 138.87 20.7205C138.313 20.4669 137.833 20.1201 137.428 19.6804L135.229 21.9129C135.651 22.3696 136.156 22.7756 136.746 23.1307C137.353 23.4689 138.002 23.7311 138.693 23.9172Z" fill="white"/>
<path d="M152.897 24.1709C151.768 24.1709 150.766 23.9426 149.89 23.4859C149.03 23.0123 148.356 22.3696 147.868 21.5578C147.378 20.7291 147.134 19.7819 147.134 18.7163V11.562H151.001V18.6656C151.001 19.0884 151.068 19.4521 151.204 19.7565C151.355 20.061 151.575 20.2978 151.861 20.4669C152.148 20.636 152.493 20.7206 152.897 20.7206C153.47 20.7206 153.925 20.543 154.262 20.1878C154.599 19.8157 154.767 19.3083 154.767 18.6656V11.562H158.635V18.691C158.635 19.7735 158.391 20.7291 157.901 21.5578C157.413 22.3696 156.739 23.0123 155.879 23.4859C155.02 23.9426 154.026 24.1709 152.897 24.1709Z" fill="white"/>
<path d="M164.424 11.562H160.557V23.8919H164.424V16.6868C164.424 16.264 164.509 15.9088 164.677 15.6212C164.863 15.3337 165.107 15.1138 165.41 14.9616C165.714 14.7924 166.059 14.7079 166.446 14.7079C167.003 14.7079 167.466 14.8855 167.836 15.2407C168.225 15.5789 168.418 16.061 168.418 16.6868V23.8919H172.285V16.6868C172.285 16.264 172.37 15.9088 172.538 15.6212C172.724 15.3337 172.968 15.1138 173.271 14.9616C173.574 14.7924 173.92 14.7079 174.307 14.7079C174.864 14.7079 175.327 14.8855 175.698 15.2407C176.085 15.5789 176.279 16.061 176.279 16.6868V23.8919H180.147V16.2555C180.147 15.2238 179.927 14.3443 179.489 13.617C179.067 12.8728 178.486 12.3062 177.745 11.9172C177.021 11.5112 176.186 11.3083 175.242 11.3083C174.282 11.3083 173.414 11.5197 172.639 11.9426C172.136 12.212 171.696 12.5596 171.319 12.9856C170.967 12.54 170.54 12.1755 170.035 11.8918C169.362 11.5028 168.595 11.3083 167.736 11.3083C166.826 11.3083 166.009 11.5028 165.284 11.8918C164.969 12.0536 164.683 12.2475 164.424 12.4733V11.562Z" fill="white"/>
</g>
<defs>
<clipPath id="svg-996067164_10532_clip0_401_14716">
<rect width="161" height="32" fill="white" transform="translate(19.5)"/>
</clipPath>
</defs>
</svg>