<svg width="200" height="32" viewBox="0 0 200 32" fill="none" xmlns="http://www.w3.org/2000/svg" id="svg634609967_7571">
<g clip-path="url(#svg634609967_7571_clip0_401_14731)">
<path d="M110.684 23.6191H114.414V9.54817H110.684V23.6191ZM110.684 7.35392H114.414V4.00763H110.684V7.35392Z" fill="white"/>
<path d="M116.818 28.2271H120.548V22.0282H120.603C121.398 23.2351 122.687 24.0305 124.662 24.0305C128.283 24.0305 130.751 21.1505 130.751 16.5974C130.751 12.2087 128.365 9.16418 124.635 9.16418C122.715 9.16418 121.398 10.0694 120.493 11.3036H120.411V9.54818H116.818V28.2271ZM123.867 20.9311C121.645 20.9311 120.466 19.2579 120.466 16.7071C120.466 14.1836 121.398 12.1814 123.73 12.1814C126.034 12.1814 126.966 14.0465 126.966 16.7071C126.966 19.3676 125.759 20.9311 123.867 20.9311Z" fill="white"/>
<path d="M138.193 24.0305C141.704 24.0305 144.118 22.3299 144.118 19.5047C144.118 16.2134 141.512 15.5551 139.153 15.0614C137.15 14.6499 135.286 14.5402 135.286 13.3334C135.286 12.3185 136.246 11.7699 137.699 11.7699C139.29 11.7699 140.25 12.3185 140.414 13.8271H143.788C143.514 11.0019 141.457 9.16418 137.754 9.16418C134.545 9.16418 132.022 10.6179 132.022 13.6625C132.022 16.7345 134.49 17.4202 137.014 17.9139C138.934 18.2979 140.716 18.4351 140.716 19.7791C140.716 20.7665 139.784 21.3974 138.138 21.3974C136.465 21.3974 135.313 20.6842 135.066 19.0659H131.61C131.83 22.0556 134.106 24.0305 138.193 24.0305Z" fill="white"/>
<path d="M158.28 23.619V9.54816H154.55V17.667C154.55 19.5322 153.48 20.8487 151.725 20.8487C150.134 20.8487 149.394 19.9436 149.394 18.2979V9.54816H145.69V18.9287C145.69 22.0007 147.446 24.003 150.573 24.003C152.548 24.003 153.645 23.2625 154.605 21.9734H154.687V23.619H158.28Z" fill="white"/>
<path d="M160.693 23.6191H164.424V15.4454C164.424 13.5802 165.439 12.3734 166.948 12.3734C168.319 12.3734 169.114 13.1962 169.114 14.7871V23.6191H172.845V15.4454C172.845 13.5802 173.805 12.3734 175.368 12.3734C176.74 12.3734 177.535 13.1962 177.535 14.7871V23.6191H181.265V14.1562C181.265 11.0842 179.592 9.16418 176.629 9.16418C174.847 9.16418 173.365 10.0967 172.405 11.6327H172.351C171.665 10.1516 170.239 9.16418 168.456 9.16418C166.509 9.16418 165.137 10.1516 164.369 11.4407H164.287V9.54818H160.693V23.6191Z" fill="white"/>
<path d="M13.459 23.6191H17.1893V4.00763H13.459V23.6191Z" fill="white"/>
<path d="M26.3109 24.0305C30.672 24.0305 33.6617 20.7939 33.6617 16.5974C33.6617 12.4007 30.672 9.16418 26.3109 9.16418C21.9497 9.16418 18.96 12.4007 18.96 16.5974C18.96 20.7939 21.9497 24.0305 26.3109 24.0305ZM26.3109 21.1779C24.0069 21.1779 22.7451 19.3402 22.7451 16.5974C22.7451 13.8545 24.0069 11.9894 26.3109 11.9894C28.5874 11.9894 29.8765 13.8545 29.8765 16.5974C29.8765 19.3402 28.5874 21.1779 26.3109 21.1779Z" fill="white"/>
<path d="M41.5945 28.4191C43.6791 28.4191 45.4894 27.9254 46.6688 26.8282C47.7111 25.8682 48.342 24.5242 48.342 22.5494V9.54818H44.7488V11.0294H44.694C43.8436 9.84994 42.5545 9.16418 40.7991 9.16418C37.2334 9.16418 34.71 11.8522 34.71 16.0487C34.71 20.3002 37.782 22.7687 40.9088 22.7687C42.6916 22.7687 43.7614 22.0556 44.5842 21.1231H44.6665V22.6591C44.6665 24.5791 43.6516 25.5939 41.5396 25.5939C39.8116 25.5939 39.0162 24.9082 38.7145 24.0305H35.0116C35.3956 26.7734 37.7545 28.4191 41.5945 28.4191ZM41.5396 19.7791C39.6196 19.7791 38.358 18.3802 38.358 15.9939C38.358 13.6351 39.6196 12.1539 41.5122 12.1539C43.7614 12.1539 44.8585 13.9094 44.8585 15.9665C44.8585 18.0511 43.8985 19.7791 41.5396 19.7791Z" fill="white"/>
<path d="M57.4085 24.0305C61.7696 24.0305 64.7594 20.7939 64.7594 16.5974C64.7594 12.4007 61.7696 9.16418 57.4085 9.16418C53.0474 9.16418 50.0576 12.4007 50.0576 16.5974C50.0576 20.7939 53.0474 24.0305 57.4085 24.0305ZM57.4085 21.1779C55.1045 21.1779 53.8428 19.3402 53.8428 16.5974C53.8428 13.8545 55.1045 11.9894 57.4085 11.9894C59.6851 11.9894 60.9743 13.8545 60.9743 16.5974C60.9743 19.3402 59.6851 21.1779 57.4085 21.1779Z" fill="white"/>
<path d="M182.62 7.23813C182.62 6.60695 183.132 6.09528 183.763 6.09528H186.049C186.68 6.09528 187.192 6.60695 187.192 7.23813C187.192 7.86932 186.68 8.381 186.049 8.381H183.763C183.132 8.381 182.62 7.86932 182.62 7.23813Z" fill="white"/>
<path fill-rule="evenodd" clip-rule="evenodd" d="M87.3818 0C96.2181 0 103.382 7.16345 103.382 16C103.382 24.8366 96.2181 32 87.3818 32C78.5453 32 71.3818 24.8366 71.3818 16C71.3818 7.16345 78.5453 0 87.3818 0ZM86.8035 1.19727C84.9782 1.45415 83.2401 2.92086 81.8909 5.37392C81.4995 6.08546 81.1464 6.87157 80.8387 7.72035C82.6733 7.25934 84.6886 6.98754 86.8035 6.9455V1.19727ZM79.4864 8.10464C79.8691 6.90366 80.3372 5.79872 80.8774 4.81652C81.5462 3.60047 82.34 2.55036 83.2343 1.74382C78.3712 3.15618 74.538 6.98943 73.1256 11.8526C73.9322 10.9582 74.9822 10.1645 76.1983 9.49568C77.1806 8.95544 78.2854 8.48728 79.4864 8.10464ZM79.1022 9.45688C78.6411 11.2914 78.3694 13.3067 78.3273 15.4217H72.579C72.8359 13.5963 74.3026 11.8582 76.7558 10.5091C77.4673 10.1178 78.2534 9.76464 79.1022 9.45688ZM79.4842 15.4217C79.5319 13.1136 79.8642 10.9467 80.414 9.03216C82.3286 8.4824 84.4954 8.15008 86.8035 8.10232V10.6006C85.9425 12.805 84.1863 14.561 81.9819 15.4217H79.4842ZM78.3273 16.5783H72.579C72.8359 18.4037 74.3026 20.1417 76.7558 21.4909C77.4673 21.8822 78.2534 22.2354 79.1022 22.5431C78.6411 20.7086 78.3694 18.6933 78.3273 16.5783ZM80.414 22.9678C79.8642 21.0533 79.5319 18.8864 79.4842 16.5783H81.9819C84.1863 17.439 85.9425 19.195 86.8035 21.3994V23.8977C84.4954 23.8499 82.3286 23.5176 80.414 22.9678ZM79.4864 23.8954C78.2854 23.5127 77.1806 23.0446 76.1983 22.5043C74.9822 21.8355 73.9322 21.0418 73.1256 20.1474C74.538 25.0106 78.3712 28.8438 83.2343 30.2562C82.34 29.4496 81.5462 28.3995 80.8774 27.1834C80.3372 26.2013 79.8691 25.0963 79.4864 23.8954ZM86.8035 30.8027C84.9782 30.5458 83.2401 29.0791 81.8909 26.6261C81.4995 25.9146 81.1464 25.1284 80.8387 24.2797C82.6733 24.7406 84.6886 25.0125 86.8035 25.0545V30.8027ZM91.5293 30.2562C92.4236 29.4496 93.2173 28.3995 93.8861 27.1834C94.4261 26.2013 94.8949 25.0963 95.2773 23.8954C96.4781 23.5127 97.5829 23.0446 98.5653 22.5043C99.7813 21.8355 100.832 21.0418 101.638 20.1474C100.225 25.0106 96.3925 28.8438 91.5293 30.2562ZM93.9253 24.2797C93.6173 25.1284 93.2637 25.9146 92.8725 26.6261C91.5235 29.0791 89.7854 30.5458 87.9601 30.8027V25.0545C90.075 25.0125 92.0903 24.7406 93.9253 24.2797ZM95.6613 22.5431C96.5101 22.2354 97.2965 21.8822 98.0077 21.4909C100.461 20.1418 101.928 18.4037 102.184 16.5783H96.4365C96.3941 18.6933 96.1221 20.7086 95.6613 22.5431ZM95.2797 16.5783C95.2317 18.8864 94.8997 21.0533 94.3493 22.9678C92.435 23.5176 90.2682 23.8499 87.9601 23.8977V21.4012C88.8209 19.1961 90.5774 17.4393 92.7824 16.5783H95.2797ZM96.4365 15.4217H102.184C101.928 13.5963 100.461 11.8582 98.0077 10.5091C97.2965 10.1178 96.5101 9.76464 95.6613 9.45688C96.1221 11.2914 96.3941 13.3067 96.4365 15.4217ZM94.3493 9.03216C94.8997 10.9467 95.2317 13.1136 95.2797 15.4217H92.7825C90.5774 14.5607 88.8209 12.8039 87.9601 10.5988V8.10232C90.2682 8.15008 92.435 8.4824 94.3493 9.03216ZM95.2773 8.10464C96.4781 8.48728 97.5829 8.95544 98.5653 9.49568C99.7813 10.1645 100.832 10.9582 101.638 11.8526C100.225 6.98943 96.3925 3.15618 91.5293 1.74382C92.4236 2.55036 93.2173 3.60047 93.8861 4.81652C94.4261 5.79872 94.8949 6.90366 95.2773 8.10464ZM87.9601 1.19727C89.7854 1.45415 91.5235 2.92086 92.8725 5.37392C93.2637 6.08547 93.6173 6.87157 93.9253 7.72035C92.0903 7.25934 90.075 6.98754 87.9601 6.9455V1.19727Z" fill="white"/>
</g>
<defs>
<clipPath id="svg634609967_7571_clip0_401_14731">
<rect width="174.4" height="32" fill="white" transform="translate(12.7998)"/>
</clipPath>
</defs>
</svg>