<svg width="200" height="32" viewBox="0 0 200 32" fill="none" xmlns="http://www.w3.org/2000/svg" id="svg1466046653_17117">
<path d="M69.9852 21.3566C69.9852 22.0551 69.8418 22.5919 69.555 22.9669C69.2756 23.3419 68.8087 23.5294 68.1543 23.5294C67.5366 23.5294 67.0992 23.3419 66.8418 22.9669C66.5918 22.5919 66.4668 22.0551 66.4668 21.3566V9.69854C66.4668 8.99999 66.5918 8.46323 66.8418 8.08823C67.0992 7.71323 67.5366 7.52573 68.1543 7.52573C68.8087 7.52573 69.2756 7.71323 69.555 8.08823C69.8418 8.46323 69.9852 8.99999 69.9852 9.69854V21.3566Z" fill="white"/>
<path d="M71.0532 17.9706C71.0532 17.1911 71.1782 16.4559 71.4283 15.7647C71.6856 15.0662 72.0679 14.4559 72.5753 13.9338C73.09 13.4118 73.7297 12.9963 74.4944 12.6875C75.2665 12.3786 76.1709 12.2243 77.2077 12.2243C78.2003 12.2243 79.079 12.3676 79.8437 12.6544C80.6084 12.9412 81.2518 13.3419 81.7738 13.8566C82.2959 14.3639 82.6929 14.9705 82.965 15.6764C83.237 16.375 83.3731 17.1397 83.3731 17.9706C83.3731 18.7427 83.2444 19.4743 82.9871 20.1655C82.7297 20.8492 82.3437 21.4522 81.8289 21.9743C81.3143 22.4889 80.6709 22.9007 79.8989 23.2096C79.1267 23.5111 78.2297 23.6617 77.2077 23.6617C76.2003 23.6617 75.3106 23.5184 74.5385 23.2316C73.7738 22.9375 73.1305 22.5367 72.6084 22.0294C72.0937 21.5147 71.704 20.9118 71.4393 20.2206C71.1819 19.5221 71.0532 18.772 71.0532 17.9706ZM74.7261 17.9706C74.7261 18.4559 74.7701 18.9191 74.8584 19.3603C74.9466 19.7941 75.0863 20.1765 75.2775 20.5074C75.476 20.8382 75.7334 21.103 76.0495 21.3014C76.3658 21.4926 76.7518 21.5882 77.2077 21.5882C77.6268 21.5882 77.9907 21.5 78.2995 21.3235C78.6158 21.1471 78.8731 20.9007 79.0717 20.5846C79.2775 20.2684 79.432 19.8897 79.5348 19.4486C79.6378 19 79.6893 18.5074 79.6893 17.9706C79.6893 17.4853 79.6415 17.0257 79.5459 16.5919C79.4576 16.1508 79.3143 15.7647 79.1157 15.4338C78.9172 15.0956 78.6599 14.8309 78.3437 14.6397C78.0349 14.4412 77.6561 14.3419 77.2077 14.3419C76.7591 14.3419 76.3768 14.4375 76.0606 14.6287C75.7444 14.8199 75.4871 15.0808 75.2885 15.4118C75.09 15.7427 74.9466 16.1286 74.8584 16.5699C74.7701 17.011 74.7261 17.4779 74.7261 17.9706Z" fill="white"/>
<path d="M92.4263 21.4007C92.2277 21.7683 91.9851 22.0808 91.6983 22.3382C91.419 22.5955 91.1064 22.8088 90.7609 22.9779C90.4226 23.1396 90.0587 23.261 89.6689 23.3419C89.2865 23.4154 88.8932 23.4522 88.4888 23.4522C87.8123 23.4522 87.1947 23.3309 86.6358 23.0882C86.077 22.8455 85.5954 22.4963 85.191 22.0404C84.7939 21.5772 84.4851 21.011 84.2645 20.3419C84.0439 19.6727 83.9336 18.908 83.9336 18.0478C83.9336 17.2389 84.0366 16.4816 84.2425 15.7757C84.4483 15.0698 84.7461 14.4559 85.1359 13.9338C85.5329 13.4117 86.0182 13 86.5918 12.6985C87.1652 12.3971 87.8197 12.2463 88.555 12.2463C89.3932 12.2463 90.1359 12.4081 90.7829 12.7315C91.4373 13.0551 91.9999 13.5845 92.4704 14.3198V14.0331C92.4704 13.5037 92.6138 13.1066 92.9006 12.8419C93.1947 12.5699 93.5991 12.4338 94.1138 12.4338C94.4226 12.4338 94.6836 12.4852 94.8969 12.5882C95.1101 12.6838 95.2792 12.8308 95.4042 13.0294C95.5293 13.2206 95.6175 13.4595 95.6689 13.7463C95.7278 14.0257 95.7571 14.3456 95.7571 14.7059V22.0956C95.7571 22.9926 95.6432 23.794 95.4153 24.4999C95.1947 25.2058 94.8491 25.8015 94.3785 26.2867C93.9079 26.772 93.305 27.1396 92.5696 27.3897C91.8344 27.647 90.9594 27.7757 89.9447 27.7757C89.2315 27.7757 88.5991 27.7427 88.0476 27.6764C87.5035 27.6177 87.0329 27.5257 86.6358 27.4007C86.2388 27.261 85.9374 27.1066 85.7314 26.9375C85.5329 26.7683 85.4336 26.5477 85.4336 26.2757C85.4336 26.1213 85.4557 25.9743 85.4998 25.8345C85.5439 25.6948 85.6101 25.5699 85.6983 25.4595C85.7939 25.3566 85.9152 25.2721 86.0623 25.2058C86.2167 25.1471 86.4042 25.1176 86.6248 25.1176C86.8601 25.1176 87.0954 25.1323 87.3307 25.1618C87.5733 25.1911 87.8234 25.2206 88.0807 25.2499C88.3454 25.2867 88.6211 25.3198 88.9079 25.3492C89.202 25.3786 89.5182 25.3934 89.8564 25.3934C90.2608 25.3934 90.6211 25.3529 90.9374 25.2721C91.2535 25.1911 91.5218 25.0478 91.7424 24.8419C91.9631 24.636 92.1322 24.3603 92.2498 24.0147C92.3675 23.6764 92.4263 23.2426 92.4263 22.7132V21.4007ZM92.4263 17.9706C92.4263 17.4338 92.3858 16.9448 92.305 16.5037C92.2315 16.0625 92.1027 15.6875 91.9189 15.3786C91.7351 15.0625 91.4888 14.8198 91.18 14.6507C90.8711 14.4742 90.4851 14.386 90.0219 14.386C89.566 14.386 89.1873 14.4779 88.8859 14.6617C88.5918 14.8455 88.3565 15.0993 88.18 15.4227C88.0035 15.7463 87.8785 16.125 87.8049 16.5588C87.7388 16.9926 87.7057 17.4559 87.7057 17.9485C87.7057 19.0735 87.9042 19.9191 88.3013 20.4852C88.6983 21.0515 89.2755 21.3346 90.0329 21.3346C90.3858 21.3272 90.7057 21.261 90.9924 21.136C91.2865 21.0036 91.5403 20.8015 91.7535 20.5294C91.9667 20.2573 92.1322 19.9117 92.2498 19.4926C92.3675 19.0735 92.4263 18.5662 92.4263 17.9706Z" fill="white"/>
<path d="M96.77 17.9706C96.77 17.1911 96.895 16.4559 97.145 15.7647C97.4024 15.0662 97.7847 14.4559 98.2921 13.9338C98.8068 13.4118 99.4464 12.9963 100.211 12.6875C100.983 12.3786 101.888 12.2243 102.924 12.2243C103.917 12.2243 104.796 12.3676 105.56 12.6544C106.325 12.9412 106.969 13.3419 107.491 13.8566C108.013 14.3639 108.41 14.9705 108.682 15.6764C108.954 16.375 109.09 17.1397 109.09 17.9706C109.09 18.7427 108.961 19.4743 108.704 20.1655C108.446 20.8492 108.06 21.4522 107.546 21.9743C107.031 22.4889 106.388 22.9007 105.616 23.2096C104.844 23.5111 103.946 23.6617 102.924 23.6617C101.917 23.6617 101.027 23.5184 100.255 23.2316C99.4906 22.9375 98.8472 22.5367 98.3251 22.0294C97.8105 21.5147 97.4207 20.9118 97.156 20.2206C96.8987 19.5221 96.77 18.772 96.77 17.9706ZM100.443 17.9706C100.443 18.4559 100.487 18.9191 100.575 19.3603C100.663 19.7941 100.803 20.1765 100.994 20.5074C101.193 20.8382 101.45 21.103 101.766 21.3014C102.082 21.4926 102.469 21.5882 102.924 21.5882C103.344 21.5882 103.708 21.5 104.016 21.3235C104.332 21.1471 104.59 20.9007 104.788 20.5846C104.994 20.2684 105.149 19.8897 105.252 19.4486C105.355 19 105.406 18.5074 105.406 17.9706C105.406 17.4853 105.358 17.0257 105.263 16.5919C105.174 16.1508 105.031 15.7647 104.833 15.4338C104.634 15.0956 104.377 14.8309 104.06 14.6397C103.752 14.4412 103.373 14.3419 102.924 14.3419C102.476 14.3419 102.093 14.4375 101.777 14.6287C101.461 14.8199 101.204 15.0808 101.005 15.4118C100.807 15.7427 100.663 16.1286 100.575 16.5699C100.487 17.011 100.443 17.4779 100.443 17.9706Z" fill="white"/>
<path d="M113.82 8.50733C113.82 8.74998 113.765 8.96688 113.655 9.15807C113.544 9.34189 113.401 9.49626 113.225 9.62134C113.048 9.74633 112.842 9.84186 112.607 9.90802C112.379 9.96685 112.144 9.99631 111.901 9.99631C111.644 9.99631 111.397 9.96318 111.162 9.89701C110.934 9.83085 110.732 9.73532 110.555 9.61024C110.379 9.47791 110.239 9.31983 110.136 9.13601C110.033 8.95218 109.982 8.74262 109.982 8.50733C109.982 8.29409 110.03 8.09924 110.125 7.92277C110.228 7.73895 110.364 7.58086 110.533 7.4485C110.703 7.31616 110.905 7.21321 111.14 7.13968C111.375 7.06615 111.633 7.02939 111.912 7.02939C112.155 7.02939 112.39 7.06248 112.618 7.12865C112.853 7.19483 113.059 7.29041 113.236 7.41542C113.412 7.54042 113.552 7.69483 113.655 7.87865C113.765 8.06248 113.82 8.27203 113.82 8.50733ZM113.655 21.3566C113.655 22.0551 113.511 22.5919 113.225 22.9668C112.945 23.3419 112.478 23.5294 111.824 23.5294C111.206 23.5294 110.769 23.3419 110.511 22.9668C110.261 22.5919 110.136 22.0551 110.136 21.3566V14.6066C110.136 13.908 110.261 13.3713 110.511 12.9963C110.769 12.6213 111.206 12.4338 111.824 12.4338C112.478 12.4338 112.945 12.6213 113.225 12.9963C113.511 13.3713 113.655 13.908 113.655 14.6066V21.3566Z" fill="white"/>
<path d="M118.726 17.9485C118.726 18.4412 118.763 18.9007 118.836 19.3272C118.917 19.7537 119.05 20.1286 119.233 20.4522C119.425 20.7683 119.675 21.0183 119.984 21.2021C120.3 21.386 120.689 21.4779 121.153 21.4779C121.579 21.4779 121.936 21.3897 122.223 21.2132C122.516 21.0294 122.752 20.7794 122.929 20.4632C123.105 20.1396 123.23 19.761 123.303 19.3272C123.384 18.8933 123.425 18.4227 123.425 17.9155C123.425 17.511 123.395 17.0993 123.336 16.6802C123.278 16.2536 123.168 15.8676 123.006 15.522C122.844 15.1764 122.62 14.8933 122.333 14.6727C122.046 14.4522 121.671 14.3419 121.208 14.3419C120.745 14.3419 120.351 14.4154 120.028 14.5625C119.711 14.7095 119.454 14.9338 119.256 15.2353C119.064 15.5367 118.928 15.9155 118.848 16.3713C118.767 16.8198 118.726 17.3456 118.726 17.9485ZM118.715 14.6066C118.899 14.2169 119.134 13.875 119.421 13.5809C119.708 13.2867 120.024 13.0404 120.37 12.8419C120.715 12.6434 121.075 12.4963 121.45 12.4007C121.833 12.2978 122.211 12.2463 122.586 12.2463C123.263 12.2463 123.874 12.3971 124.418 12.6985C124.962 13 125.425 13.4117 125.807 13.9338C126.196 14.4485 126.495 15.0588 126.701 15.7647C126.906 16.4632 127.01 17.2132 127.01 18.0147C127.01 18.8455 126.899 19.6066 126.678 20.2978C126.466 20.989 126.16 21.5845 125.763 22.0845C125.373 22.5772 124.902 22.9632 124.351 23.2426C123.807 23.522 123.201 23.6617 122.531 23.6617C121.708 23.6617 120.972 23.4706 120.325 23.0882C119.678 22.7059 119.142 22.1691 118.715 21.4779V25.4485C118.715 26.147 118.572 26.6838 118.285 27.0588C118.006 27.4338 117.539 27.6213 116.884 27.6213C116.267 27.6213 115.829 27.4338 115.572 27.0588C115.322 26.6838 115.197 26.147 115.197 25.4485V14.6066C115.197 13.908 115.322 13.3713 115.572 12.9963C115.829 12.6213 116.267 12.4338 116.884 12.4338C117.539 12.4338 118.006 12.6213 118.285 12.9963C118.572 13.3713 118.715 13.908 118.715 14.6066Z" fill="white"/>
<path d="M130.89 15.3897C130.89 15.6764 131.016 15.9007 131.265 16.0625C131.515 16.2169 131.861 16.3456 132.302 16.4486C132.721 16.5441 133.151 16.636 133.592 16.7242C134.034 16.8125 134.464 16.9155 134.883 17.0331C135.302 17.1433 135.695 17.2758 136.063 17.4301C136.43 17.5846 136.754 17.7794 137.033 18.0147C137.313 18.2426 137.533 18.5221 137.695 18.8529C137.857 19.1765 137.938 19.5662 137.938 20.022C137.938 20.5956 137.82 21.1066 137.585 21.5551C137.35 21.9963 137.016 22.3713 136.582 22.6802C136.155 22.989 135.644 23.2279 135.048 23.3971C134.453 23.5662 133.795 23.6544 133.074 23.6617C132.391 23.6617 131.732 23.6177 131.099 23.5294C130.468 23.4486 129.905 23.3198 129.412 23.1433C128.927 22.9669 128.537 22.75 128.243 22.4926C127.949 22.2279 127.802 21.9191 127.802 21.5662C127.802 21.2573 127.901 21.0183 128.1 20.8492C128.298 20.6802 128.552 20.5956 128.861 20.5956C128.979 20.5956 129.118 20.6176 129.28 20.6617C129.442 20.7059 129.618 20.761 129.809 20.8272C130 20.8934 130.202 20.9669 130.416 21.0478C130.636 21.1213 130.864 21.1875 131.099 21.2463C131.394 21.3272 131.695 21.3934 132.004 21.4449C132.32 21.4889 132.644 21.511 132.975 21.511C133.18 21.511 133.383 21.4926 133.581 21.4559C133.78 21.4118 133.957 21.3493 134.111 21.2684C134.273 21.1801 134.405 21.0698 134.508 20.9375C134.611 20.8052 134.673 20.6434 134.696 20.4522C134.717 20.4081 134.736 20.3639 134.75 20.3198C134.765 20.2758 134.773 20.2243 134.773 20.1655C134.773 19.9595 134.677 19.7757 134.486 19.6139C134.302 19.4522 134.04 19.3235 133.703 19.2279C133.136 19.0956 132.596 18.9743 132.081 18.864C131.567 18.7537 131.089 18.636 130.648 18.511C130.214 18.3861 129.816 18.2426 129.456 18.0808C129.103 17.9191 128.802 17.7206 128.552 17.4853C128.31 17.25 128.118 16.9669 127.978 16.636C127.846 16.3051 127.78 15.9044 127.78 15.4338C127.78 14.9265 127.894 14.4742 128.121 14.0772C128.357 13.6727 128.692 13.3346 129.126 13.0625C129.56 12.7904 130.085 12.5846 130.703 12.4449C131.32 12.2978 132.019 12.2243 132.798 12.2243C134.195 12.2243 135.257 12.3934 135.986 12.7316C136.721 13.0625 137.089 13.4963 137.089 14.0331C137.089 14.3346 136.989 14.5662 136.791 14.7279C136.592 14.8823 136.353 14.9595 136.074 14.9595C135.927 14.9595 135.772 14.9338 135.61 14.8823C135.456 14.8235 135.269 14.761 135.048 14.6949C134.827 14.6214 134.563 14.5589 134.254 14.5074C133.953 14.4486 133.577 14.4191 133.129 14.4191C132.791 14.4191 132.482 14.4338 132.202 14.4632C131.93 14.4926 131.695 14.5441 131.496 14.6176C131.305 14.6912 131.155 14.7904 131.045 14.9155C130.941 15.0405 130.89 15.1985 130.89 15.3897Z" fill="white"/>
<path d="M142.414 19.4374C142.414 19.783 142.458 20.0845 142.547 20.3419C142.642 20.5992 142.771 20.8162 142.933 20.9926C143.095 21.1618 143.282 21.2904 143.495 21.3786C143.716 21.4596 143.951 21.5 144.2 21.5C144.495 21.5 144.778 21.4559 145.05 21.3676C145.322 21.2794 145.561 21.1433 145.768 20.9595C145.98 20.7757 146.15 20.5441 146.275 20.2646C146.399 19.9853 146.462 19.6581 146.462 19.2831V14.6066C146.462 13.908 146.587 13.3713 146.837 12.9963C147.095 12.6214 147.532 12.4338 148.15 12.4338C148.804 12.4338 149.271 12.6214 149.55 12.9963C149.837 13.3713 149.98 13.908 149.98 14.6066V21.3566C149.98 22.0551 149.837 22.5919 149.55 22.9669C149.271 23.3419 148.804 23.5294 148.15 23.5294C147.532 23.5294 147.095 23.3419 146.837 22.9669C146.587 22.5919 146.462 22.0551 146.462 21.3566C146.308 21.6949 146.105 22.0037 145.855 22.2831C145.612 22.5625 145.326 22.8052 144.995 23.011C144.671 23.2096 144.312 23.3639 143.914 23.4742C143.525 23.5846 143.101 23.6397 142.646 23.6397C142.153 23.6397 141.679 23.5551 141.223 23.3861C140.775 23.2096 140.377 22.9522 140.032 22.6139C139.687 22.2684 139.411 21.8419 139.205 21.3346C138.999 20.8272 138.896 20.2353 138.896 19.5588V14.6066C138.896 13.908 139.021 13.3713 139.271 12.9963C139.528 12.6214 139.965 12.4338 140.584 12.4338C141.238 12.4338 141.704 12.6214 141.984 12.9963C142.271 13.3713 142.414 13.908 142.414 14.6066V19.4374Z" fill="white"/>
<path d="M151.577 14.6066C151.577 13.908 151.702 13.3713 151.953 12.9963C152.21 12.6213 152.647 12.4338 153.265 12.4338C153.92 12.4338 154.387 12.6213 154.666 12.9963C154.952 13.3713 155.096 13.908 155.096 14.6066C155.243 14.2536 155.442 13.9338 155.692 13.647C155.949 13.3529 156.24 13.1029 156.563 12.897C156.894 12.6912 157.251 12.5331 157.633 12.4227C158.015 12.3051 158.412 12.2463 158.824 12.2463C159.206 12.2463 159.581 12.2978 159.949 12.4007C160.324 12.4963 160.67 12.6544 160.986 12.875C161.309 13.0882 161.592 13.3603 161.835 13.6912C162.078 14.022 162.265 14.4191 162.398 14.8823C162.626 14.3897 162.894 13.9743 163.203 13.636C163.511 13.2978 163.846 13.0257 164.206 12.8198C164.566 12.6139 164.942 12.4669 165.331 12.3786C165.729 12.2904 166.125 12.2463 166.522 12.2463C166.993 12.2463 167.442 12.3309 167.868 12.4999C168.302 12.6691 168.68 12.9265 169.004 13.2721C169.335 13.6102 169.596 14.0404 169.787 14.5625C169.986 15.0771 170.084 15.6802 170.084 16.3713V21.3566C170.084 22.0551 169.941 22.5919 169.654 22.9668C169.376 23.3419 168.908 23.5294 168.254 23.5294C167.636 23.5294 167.199 23.3419 166.942 22.9668C166.692 22.5919 166.566 22.0551 166.566 21.3566V16.5257C166.566 16.1948 166.522 15.9007 166.435 15.6434C166.346 15.3786 166.221 15.1581 166.059 14.9816C165.905 14.7978 165.721 14.6617 165.508 14.5735C165.295 14.4779 165.066 14.4301 164.824 14.4301C164.522 14.4301 164.236 14.4779 163.964 14.5735C163.692 14.6691 163.453 14.8162 163.247 15.0147C163.048 15.2132 162.886 15.4669 162.761 15.7757C162.644 16.0845 162.585 16.4559 162.585 16.8897V21.3566C162.585 22.0551 162.441 22.5919 162.155 22.9668C161.875 23.3419 161.409 23.5294 160.754 23.5294C160.136 23.5294 159.699 23.3419 159.442 22.9668C159.191 22.5919 159.066 22.0551 159.066 21.3566V16.7352C159.066 15.9779 158.908 15.4044 158.593 15.0147C158.283 14.625 157.86 14.4301 157.324 14.4301C157.008 14.4301 156.713 14.4816 156.441 14.5845C156.169 14.6875 155.934 14.8382 155.735 15.0368C155.537 15.2353 155.379 15.4816 155.261 15.7757C155.151 16.0698 155.096 16.4081 155.096 16.7904V21.3566C155.096 22.0551 154.952 22.5919 154.666 22.9668C154.387 23.3419 153.92 23.5294 153.265 23.5294C152.647 23.5294 152.21 23.3419 151.953 22.9668C151.702 22.5919 151.577 22.0551 151.577 21.3566V14.6066Z" fill="white"/>
<path d="M43.5294 21.6471C40.4106 21.6471 37.8823 19.1188 37.8823 16C37.8823 12.8812 40.4106 10.3529 43.5294 10.3529C46.6482 10.3529 49.1764 12.8812 49.1764 16C49.1764 19.1188 46.6482 21.6471 43.5294 21.6471Z" fill="white"/>
<path d="M32.5888 17.929C30.9523 18.2176 29.8306 19.7984 30.4588 21.3368C31.3358 23.4846 32.735 25.3982 34.5489 26.8935C37.1427 29.0316 40.4143 30.1741 43.7752 30.1155C47.1361 30.0568 50.3659 28.8008 52.8835 26.5734C54.6441 25.0158 55.9757 23.0545 56.7773 20.8774C57.3514 19.318 56.1751 17.7773 54.5296 17.5461C52.8841 17.3148 51.4066 18.5126 50.5938 19.962C50.1533 20.7476 49.5813 21.4603 48.8961 22.0665C47.4516 23.3446 45.5985 24.0651 43.6703 24.0988C41.7419 24.1324 39.8648 23.477 38.3766 22.2502C37.6706 21.6682 37.0742 20.9759 36.6065 20.2061C35.7436 18.786 34.2253 17.6405 32.5888 17.929Z" fill="white"/>
<path d="M57.5377 17.7642C57.6098 17.1863 57.6469 16.5975 57.6469 16C57.6469 8.20304 51.3263 1.88235 43.5293 1.88235C35.7323 1.88235 29.4116 8.20304 29.4116 16C29.4116 16.7668 29.4728 17.5192 29.5904 18.2529C30.2389 17.3652 31.2509 16.7315 32.3441 16.5387C33.5269 16.3302 34.6018 16.617 35.5107 17.1532C35.457 16.7766 35.4292 16.3915 35.4292 16C35.4292 11.5265 39.0558 7.89995 43.5293 7.89995C48.0028 7.89995 51.6293 11.5265 51.6293 16C51.6293 16.295 51.6135 16.5863 51.5828 16.873C52.4725 16.3052 53.537 15.9808 54.7265 16.148C55.8255 16.3025 56.8587 16.9001 57.5377 17.7642Z" fill="white"/>
</svg>